<?xml version="1.0" encoding="UTF-8" standalone="no"?>
<!-- Created with Inkscape (http://www.inkscape.org/) -->

<svg
   width="210mm"
   height="297mm"
   viewBox="0 0 210 297"
   version="1.1"
   id="svg5"
   inkscape:version="1.2.2 (b0a8486541, 2022-12-01)"
   sodipodi:docname="logo.svg"
   xmlns:inkscape="http://www.inkscape.org/namespaces/inkscape"
   xmlns:sodipodi="http://sodipodi.sourceforge.net/DTD/sodipodi-0.dtd"
   xmlns="http://www.w3.org/2000/svg"
   xmlns:svg="http://www.w3.org/2000/svg">
  <sodipodi:namedview
     id="namedview7"
     pagecolor="#ffffff"
     bordercolor="#000000"
     borderopacity="0.25"
     inkscape:showpageshadow="2"
     inkscape:pageopacity="0.0"
     inkscape:pagecheckerboard="0"
     inkscape:deskcolor="#d1d1d1"
     inkscape:document-units="mm"
     showgrid="false"
     showguides="true"
     inkscape:zoom="0.55055723"
     inkscape:cx="0.9081708"
     inkscape:cy="348.73759"
     inkscape:window-width="1920"
     inkscape:window-height="1024"
     inkscape:window-x="0"
     inkscape:window-y="0"
     inkscape:window-maximized="1"
     inkscape:current-layer="layer2" />
  <defs
     id="defs2" />
  <g
     inkscape:label="Layer 1"
     inkscape:groupmode="layer"
     id="layer1" />
  <g
     inkscape:groupmode="layer"
     id="layer2"
     inkscape:label="Layer 2">
    <g
       id="g22225"
       transform="translate(46.61565,-48.537945)">
      <path
         id="rect4684"
         style="stroke:#ffffff;stroke-width:1;stroke-opacity:1;stroke-dasharray:none"
         d="m 70,59.46796 c 15.015346,5.528843 19.817797,5.468772 30,-0.120164 9.97275,5.321655 15.06941,5.808503 30,0.120164 V 100 c 0.0555,11.92963 0.74446,13.7135 -30,31.56623 C 69.376411,114.98277 70,112.17997 70,100 Z"
         sodipodi:nodetypes="cccccsc" />
      <g
         id="g18383"
         transform="matrix(1.6291047,0,0,1.6291047,-62.81699,-51.134272)">
        <g
           id="g11486"
           transform="translate(5.7158691,11.108998)">
          <rect
             style="fill:#ffffff;stroke:none;stroke-width:0.256"
             id="rect10495"
             width="5"
             height="2.5"
             x="85"
             y="70" />
          <rect
             style="fill:#ffffff;stroke:none;stroke-width:0.181019"
             id="rect10495-6"
             width="2.5"
             height="2.5"
             x="101.5"
             y="70" />
          <rect
             style="fill:#ffffff;stroke:none;stroke-width:0.181019"
             id="rect10495-6-7"
             width="2.5"
             height="2.5"
             x="85"
             y="73" />
          <rect
             style="fill:#ffffff;stroke:none;stroke-width:0.256"
             id="rect10495-3"
             width="5"
             height="2.5"
             x="90.5"
             y="70" />
          <rect
             style="fill:#ffffff;stroke:none;stroke-width:0.256"
             id="rect11304"
             width="5"
             height="2.5"
             x="96"
             y="70" />
          <rect
             style="fill:#ffffff;stroke:none;stroke-width:0.256"
             id="rect11308"
             width="5"
             height="2.5"
             x="88"
             y="73" />
          <rect
             style="fill:#ffffff;stroke:none;stroke-width:0.256"
             id="rect11310"
             width="5"
             height="2.5"
             x="93.5"
             y="73" />
          <rect
             style="fill:#ffffff;stroke:none;stroke-width:0.256"
             id="rect11312"
             width="5"
             height="2.5"
             x="99"
             y="73" />
          <rect
             style="fill:#ffffff;stroke:none;stroke-width:0.256"
             id="rect10495-5"
             width="5"
             height="2.5"
             x="85"
             y="76" />
          <rect
             style="fill:#ffffff;stroke:none;stroke-width:0.181019"
             id="rect10495-6-6"
             width="2.5"
             height="2.5"
             x="101.49999"
             y="76" />
          <rect
             style="fill:#ffffff;stroke:none;stroke-width:0.181019"
             id="rect10495-6-7-2"
             width="2.5"
             height="2.5"
             x="85"
             y="79" />
          <rect
             style="fill:#ffffff;stroke:none;stroke-width:0.256"
             id="rect10495-3-9"
             width="5"
             height="2.5"
             x="90.5"
             y="76" />
          <rect
             style="fill:#ffffff;stroke:none;stroke-width:0.256"
             id="rect11304-1"
             width="5"
             height="2.5"
             x="96"
             y="76" />
          <rect
             style="fill:#ffffff;stroke:none;stroke-width:0.256"
             id="rect11308-2"
             width="5"
             height="2.5"
             x="88"
             y="79" />
          <rect
             style="fill:#ffffff;stroke:none;stroke-width:0.256"
             id="rect11310-7"
             width="5"
             height="2.5"
             x="93.5"
             y="79" />
          <rect
             style="fill:#ffffff;stroke:none;stroke-width:0.256"
             id="rect11312-0"
             width="5"
             height="2.5"
             x="99"
             y="79" />
        </g>
        <path
           style="fill:#ffffff;fill-opacity:1;stroke:#000000;stroke-width:0.5;stroke-dasharray:none;stroke-opacity:1"
           d="m 90.822777,94.726784 c 1.579314,-0.334922 2.623707,-1.673722 2.481535,-3.181066 -0.08993,-0.953426 -0.458284,-1.675378 -1.425565,-2.794018 -0.896693,-1.037003 -1.221613,-1.706338 -1.223267,-2.519916 -5.1e-4,-0.255721 0.0097,-0.248995 -0.138248,-0.09051 -0.06495,0.06954 -0.133097,0.142208 -0.151454,0.161478 -0.9524,0.999846 -1.362142,1.979411 -1.266479,3.027727 0.07447,0.816113 -0.21028,1.265513 -0.696823,1.099731 -0.356154,-0.121353 -0.558781,-0.761841 -0.439688,-1.389815 0.02927,-0.15429 0.01758,-0.159727 -0.09056,-0.04211 -1.85048,2.012713 -1.00874,5.149657 1.533778,5.715994 0.227243,0.05062 0.742416,0.06894 0.644529,0.02828 -0.218835,-0.09094 -0.691917,-0.139249 -0.819559,-0.225801 -0.796359,-0.540003 -0.806525,-1.591546 -0.02411,-2.49416 0.138909,-0.160246 0.208059,-0.244706 0.291128,-0.355572 0.03059,-0.04084 0.06814,-0.08696 0.08344,-0.102502 0.0153,-0.01555 0.02782,-0.03899 0.02782,-0.0521 0,-0.01311 0.0075,-0.02389 0.01668,-0.02396 0.0092,-6.8e-5 0.03576,-0.03263 0.05908,-0.07232 0.164079,-0.279292 0.220528,-0.422757 0.258221,-0.656262 0.03443,-0.213331 0.01485,-0.220968 0.299844,0.116819 0.0912,0.108093 0.233888,0.422294 0.270516,0.595694 0.03365,0.159271 0.03324,0.224547 -0.0049,0.794987 -0.01523,0.227484 0.03785,0.361323 0.169828,0.428296 0.258479,0.131167 0.480147,-0.07647 0.499694,-0.46807 0.0047,-0.09438 0.0091,-0.174828 0.0097,-0.178764 0.0064,-0.0401 0.193214,0.239404 0.261682,0.391615 0.445755,0.990972 -0.637339,2.076136 -1.623377,2.307227 -0.16463,0.03859 0.79976,0.02104 0.996561,-0.02087 z"
           id="path11750"
           sodipodi:nodetypes="ssssscssscsssssssscsssssccssss" />
      </g>
    </g>
    <g
       id="g31671"
       transform="matrix(1.0009996,0,0,0.88869531,-54.404783,-34.116338)">
      <path
         style="fill:#000000;fill-opacity:1;stroke:#ffffff;stroke-width:1;stroke-dasharray:none;stroke-opacity:1"
         d="M 100,50 70,60 v 50 c 0.182674,13.95444 17.116558,21.92229 30,30 14.39193,-8.17649 29.56294,-16.04608 30,-30 V 60 Z"
         id="path22227"
         sodipodi:nodetypes="ccccccc" />
      <path
         style="fill:#000000;fill-opacity:1;stroke:#ffffff;stroke-width:1;stroke-dasharray:none;stroke-opacity:1"
         d="m 100,52.5 -27.5,10 V 95 h 55 v 15.14338 C 127.05336,123.58864 110.07002,131.30202 100,137.5 Z"
         id="path28763"
         sodipodi:nodetypes="ccccccc" />
    </g>
    <g
       id="g42764"
       transform="translate(-46.215103,-40.098398)">
      <path
         style="fill:#000000;fill-opacity:1;stroke:#ffffff;stroke-width:0.943177;stroke-dasharray:none;stroke-opacity:1"
         d="m 96.835597,150.53167 -30.029989,8.88695 v 44.43476 c 0.182863,12.40125 17.13367,19.48224 30.029989,26.66086 14.406323,-7.26641 29.592493,-14.26008 30.029993,-26.66086 v -44.43476 z"
         id="path22227-3"
         sodipodi:nodetypes="ccccccc" />
      <rect
         style="fill:none;fill-opacity:1;stroke:#ffffff;stroke-width:1;stroke-linecap:butt;stroke-linejoin:round;stroke-miterlimit:0;stroke-dasharray:none;stroke-opacity:1;paint-order:normal"
         id="rect41979"
         width="18.862518"
         height="31.777935"
         x="87.284203"
         y="163.42509"
         ry="11.618819" />
      <g
         id="g42756">
        <g
           id="g42724">
          <rect
             style="fill:#000000;fill-opacity:1;stroke:#ffffff;stroke-width:1;stroke-linecap:butt;stroke-linejoin:miter;stroke-miterlimit:0;stroke-dasharray:none;stroke-opacity:1;paint-order:normal"
             id="rect33879"
             width="29.79557"
             height="29.79557"
             x="81.817665"
             y="179.97484"
             ry="5.5866642" />
          <g
             id="g42768"
             transform="translate(0.04122671,1.9429083)">
            <path
               sodipodi:type="star"
               style="fill:#ffffff;fill-opacity:1;stroke:none;stroke-width:1.43036;stroke-linecap:butt;stroke-linejoin:round;stroke-miterlimit:0;stroke-dasharray:none;stroke-opacity:1;paint-order:normal"
               id="path36895"
               inkscape:flatsided="true"
               sodipodi:sides="3"
               sodipodi:cx="94.552879"
               sodipodi:cy="201.84096"
               sodipodi:r1="5.2262387"
               sodipodi:r2="2.6131194"
               sodipodi:arg1="-1.5707963"
               sodipodi:arg2="-0.52359878"
               inkscape:rounded="0"
               inkscape:randomized="0"
               d="m 94.552879,196.61472 4.526056,7.83936 -9.052111,0 z"
               inkscape:transform-center-y="-1.3562195"
               transform="matrix(0.47087842,0,0,1.0380138,52.012337,-13.329878)" />
            <circle
               style="fill:#ffffff;fill-opacity:1;stroke:none;stroke-width:1;stroke-linecap:butt;stroke-linejoin:miter;stroke-miterlimit:0;stroke-dasharray:none;stroke-opacity:1;paint-order:normal"
               id="path36841"
               cx="96.505211"
               cy="190.15701"
               r="2.7933347" />
          </g>
        </g>
      </g>
    </g>
  </g>
</svg>
